<svg width="40" height="40" viewBox="0 0 40 40" fill="none" xmlns="http://www.w3.org/2000/svg">
<g clip-path="url(#clip0_48_25)">
<g clip-path="url(#clip1_48_25)">
<path d="M18.3816 30.621V30.9862H3.4199C3.1887 30.9862 3 30.7976 3 30.5667V11.4815C3 11.2505 3.1887 11.062 3.4199 11.062H5.6265C5.2865 11.4458 4.9805 11.7838 4.8139 11.9672V30.2831C8.2275 29.5019 16.1308 28.6086 17.7985 30.7297L18.3816 30.6193V30.621Z" fill="white"/>
<path d="M22.2032 30.7314L21.6201 30.621L20.0017 30.3153L18.3833 30.621L17.8002 30.7314C17.4653 30.3051 16.8805 30.0028 16.1325 29.7957V30.8401C16.1325 30.8401 17.144 32 20.0034 32C22.8628 32 23.8743 30.8401 23.8743 30.8401V29.7957C23.1246 30.0028 22.5398 30.3068 22.2066 30.7314H22.2032Z" fill="white"/>
<path d="M21.6184 30.621V30.9862H36.5801C36.8113 30.9862 37 30.7976 37 30.5667V11.4815C37 11.2505 36.8113 11.062 36.5801 11.062H34.3735C34.7135 11.4458 35.0195 11.7838 35.1861 11.9672V30.2831C31.7725 29.5019 23.8692 28.6086 22.2015 30.7297L21.6184 30.6193V30.621Z" fill="white"/>
<path d="M20 30.3153L18.3816 30.621L17.7985 30.7313C16.1308 28.6102 8.2275 29.5035 4.8139 30.2847C5.2474 29.8024 6.6601 28.2604 7.0528 27.6218C8.3873 27.2312 15.036 25.9558 18.3816 28.2705C19.1041 28.7698 19.6736 29.4373 20 30.317V30.3153Z" stroke="white" stroke-width="1.52435" stroke-linejoin="round"/>
<path d="M20 11.9977C18.1538 7.04725 8.6763 8.83043 7.0528 9.30595" stroke="white" stroke-width="1.52435" stroke-linejoin="round"/>
<path d="M7.0511 9.30591V27.6218C6.6584 28.2603 5.24569 29.8007 4.81219 30.2847V11.9688C4.97879 11.7837 5.28479 11.4474 5.62479 11.0636C6.17559 10.4404 6.808 9.70161 7.0511 9.30591Z" stroke="white" stroke-width="1.52435" stroke-linejoin="round"/>
<path d="M20 30.3153L21.6184 30.621L22.2015 30.7313C23.8692 28.6102 31.7725 29.5035 35.1861 30.2847C34.7526 29.8024 33.3399 28.2604 32.9472 27.6218C31.6127 27.2312 24.964 25.9558 21.6184 28.2705C20.8959 28.7698 20.3264 29.4373 20 30.317V30.3153Z" stroke="white" stroke-width="1.52435" stroke-linejoin="round"/>
<path d="M20 11.9977C21.8462 7.04728 31.3237 8.83046 32.9472 9.30428" stroke="white" stroke-width="1.52435" stroke-linejoin="round"/>
<path d="M32.9489 9.30591V27.6218C33.3416 28.2603 34.7543 29.8007 35.1878 30.2847V11.9688C35.0212 11.7837 34.7152 11.4474 34.3752 11.0636C33.8244 10.4404 33.192 9.70161 32.9489 9.30591Z" stroke="white" stroke-width="1.52435" stroke-linejoin="round"/>
<path d="M20 11.9978V30.3154" stroke="white" stroke-width="1.52435" stroke-linejoin="round"/>
</g>
</g>
<defs>
<clipPath id="clip0_48_25">
<rect width="40" height="40" fill="white"/>
</clipPath>
<clipPath id="clip1_48_25">
<rect width="34" height="24" fill="white" transform="translate(3 8)"/>
</clipPath>
</defs>
</svg>
